<svg width="327" height="53" viewBox="0 0 327 53" fill="none" xmlns="http://www.w3.org/2000/svg">
<path d="M10.054 22V21.1051L13.4148 17.4261C13.8092 16.9953 14.134 16.6207 14.3892 16.3026C14.6444 15.9811 14.8333 15.6795 14.956 15.3977C15.0819 15.1127 15.1449 14.8144 15.1449 14.5028C15.1449 14.1449 15.0587 13.835 14.8864 13.5732C14.7173 13.3113 14.4853 13.1091 14.1903 12.9666C13.8954 12.8241 13.5639 12.7528 13.196 12.7528C12.8049 12.7528 12.4635 12.834 12.1719 12.9964C11.8835 13.1555 11.6598 13.3793 11.5007 13.6676C11.3449 13.956 11.267 14.294 11.267 14.6818H10.0938C10.0938 14.0852 10.2313 13.5616 10.5064 13.1108C10.7815 12.66 11.156 12.3087 11.63 12.0568C12.1072 11.8049 12.6425 11.679 13.2358 11.679C13.8324 11.679 14.361 11.8049 14.8217 12.0568C15.2824 12.3087 15.6437 12.6484 15.9055 13.076C16.1674 13.5036 16.2983 13.9792 16.2983 14.5028C16.2983 14.8774 16.2304 15.2436 16.0945 15.6016C15.9619 15.9562 15.7299 16.3523 15.3984 16.7898C15.0703 17.224 14.6146 17.7543 14.0312 18.3807L11.7443 20.8267V20.9062H16.4773V22H10.054ZM21.8516 22.1392C21.1025 22.1392 20.4645 21.9354 19.9375 21.5277C19.4105 21.1167 19.0078 20.5218 18.7294 19.7429C18.451 18.9607 18.3118 18.0161 18.3118 16.9091C18.3118 15.8087 18.451 14.8691 18.7294 14.0902C19.0111 13.308 19.4155 12.7114 19.9425 12.3004C20.4728 11.8861 21.1091 11.679 21.8516 11.679C22.594 11.679 23.2287 11.8861 23.7557 12.3004C24.286 12.7114 24.6903 13.308 24.9688 14.0902C25.2505 14.8691 25.3913 15.8087 25.3913 16.9091C25.3913 18.0161 25.2521 18.9607 24.9737 19.7429C24.6953 20.5218 24.2926 21.1167 23.7656 21.5277C23.2386 21.9354 22.6006 22.1392 21.8516 22.1392ZM21.8516 21.0455C22.594 21.0455 23.1707 20.6875 23.5817 19.9716C23.9927 19.2557 24.1982 18.2348 24.1982 16.9091C24.1982 16.0275 24.1037 15.2768 23.9148 14.657C23.7292 14.0372 23.4607 13.5649 23.1094 13.2401C22.7614 12.9152 22.3421 12.7528 21.8516 12.7528C21.1158 12.7528 20.5407 13.1158 20.1264 13.8416C19.7121 14.5642 19.505 15.5866 19.505 16.9091C19.505 17.7907 19.5978 18.5398 19.7834 19.1562C19.969 19.7727 20.2358 20.2417 20.5838 20.5632C20.9351 20.8847 21.3577 21.0455 21.8516 21.0455Z" fill="#656565"/>
<path d="M46.8072 22H44.4165L48.7692 9.63636H51.5341L55.8928 22H53.5021L50.1999 12.1719H50.1033L46.8072 22ZM46.8857 17.1523H53.4055V18.9513H46.8857V17.1523ZM61.1871 22.1811C60.2615 22.1811 59.4666 21.9779 58.8026 21.5714C58.1425 21.1649 57.6334 20.6035 57.2752 19.8871C56.921 19.1667 56.744 18.3376 56.744 17.3999C56.744 16.4581 56.9251 15.627 57.2873 14.9066C57.6495 14.1822 58.1606 13.6187 58.8207 13.2163C59.4847 12.8098 60.2695 12.6065 61.1751 12.6065C61.9277 12.6065 62.5938 12.7454 63.1733 13.0231C63.7569 13.2968 64.2217 13.6851 64.5678 14.1882C64.9139 14.6873 65.1112 15.2708 65.1594 15.9389H63.0707C62.9862 15.4922 62.7849 15.1199 62.467 14.8221C62.1531 14.5202 61.7325 14.3693 61.2053 14.3693C60.7585 14.3693 60.3661 14.4901 60.0281 14.7315C59.69 14.969 59.4264 15.3111 59.2372 15.7578C59.0521 16.2045 58.9595 16.7398 58.9595 17.3636C58.9595 17.9955 59.0521 18.5388 59.2372 18.9936C59.4223 19.4444 59.6819 19.7925 60.016 20.038C60.354 20.2795 60.7505 20.4002 61.2053 20.4002C61.5272 20.4002 61.815 20.3398 62.0685 20.2191C62.3261 20.0943 62.5414 19.9152 62.7145 19.6818C62.8875 19.4484 63.0063 19.1647 63.0707 18.8306H65.1594C65.1071 19.4866 64.9139 20.0682 64.5799 20.5753C64.2459 21.0784 63.7911 21.4728 63.2156 21.7585C62.64 22.0402 61.9639 22.1811 61.1871 22.1811ZM66.9539 22V12.7273H69.1393V22H66.9539ZM68.0526 11.4112C67.7065 11.4112 67.4087 11.2965 67.1592 11.0671C66.9097 10.8337 66.7849 10.554 66.7849 10.228C66.7849 9.89796 66.9097 9.61825 67.1592 9.38885C67.4087 9.15542 67.7065 9.03871 68.0526 9.03871C68.4028 9.03871 68.7006 9.15542 68.9461 9.38885C69.1956 9.61825 69.3204 9.89796 69.3204 10.228C69.3204 10.554 69.1956 10.8337 68.9461 11.0671C68.7006 11.2965 68.4028 11.4112 68.0526 11.4112ZM74.8276 22.163C74.0991 22.163 73.4471 21.9759 72.8716 21.6016C72.2961 21.2273 71.8413 20.6839 71.5073 19.9716C71.1732 19.2592 71.0062 18.3939 71.0062 17.3757C71.0062 16.3454 71.1752 15.4761 71.5133 14.7678C71.8554 14.0554 72.3162 13.5181 72.8958 13.1559C73.4753 12.7897 74.1213 12.6065 74.8336 12.6065C75.377 12.6065 75.8237 12.6991 76.1738 12.8842C76.524 13.0653 76.8017 13.2847 77.0069 13.5423C77.2122 13.7958 77.3712 14.0353 77.4838 14.2607H77.5744V9.63636H79.7658V22H77.6167V20.5391H77.4838C77.3712 20.7644 77.2082 21.0039 76.9949 21.2575C76.7815 21.507 76.4998 21.7203 76.1497 21.8974C75.7995 22.0745 75.3588 22.163 74.8276 22.163ZM75.4373 20.37C75.9002 20.37 76.2946 20.2453 76.6206 19.9957C76.9466 19.7422 77.1941 19.39 77.3631 18.9393C77.5321 18.4885 77.6167 17.9633 77.6167 17.3636C77.6167 16.764 77.5321 16.2428 77.3631 15.8001C77.1981 15.3574 76.9526 15.0133 76.6266 14.7678C76.3046 14.5223 75.9082 14.3995 75.4373 14.3995C74.9503 14.3995 74.5439 14.5263 74.2179 14.7798C73.8919 15.0334 73.6464 15.3835 73.4814 15.8303C73.3163 16.277 73.2338 16.7881 73.2338 17.3636C73.2338 17.9432 73.3163 18.4603 73.4814 18.9151C73.6504 19.3659 73.8979 19.7221 74.2239 19.9837C74.5539 20.2412 74.9584 20.37 75.4373 20.37Z" fill="#0F6130"/>
<path fill-rule="evenodd" clip-rule="evenodd" d="M215 2H213V26H215V2ZM203 8V26H205V8H203ZM198 14H200V26H198V14ZM168 17.4286V26H170L170 17.4286H168ZM173 20.8571L173 26H175L175 20.8571H173ZM178 26V21.7143H180V26H178ZM183 20V26H185V20H183ZM188 26V20.8571H190V26H188ZM193 20V26H195V20H193ZM208 26V9.71429H210V26H208Z" fill="#0F6130"/>
<path d="M258.439 23.5455V8.09091H259.429V23.5455H258.439ZM261.771 12.7273C261.699 12.1155 261.405 11.6406 260.89 11.3026C260.375 10.9645 259.743 10.7955 258.994 10.7955C258.447 10.7955 257.968 10.884 257.557 11.0611C257.151 11.2382 256.833 11.4817 256.604 11.7915C256.378 12.1014 256.266 12.4536 256.266 12.848C256.266 13.178 256.344 13.4618 256.501 13.6992C256.662 13.9326 256.867 14.1278 257.117 14.2848C257.366 14.4377 257.628 14.5645 257.902 14.6651C258.175 14.7617 258.427 14.8402 258.656 14.9006L259.912 15.2386C260.234 15.3232 260.592 15.4399 260.986 15.5888C261.385 15.7377 261.765 15.9409 262.127 16.1985C262.494 16.4521 262.795 16.7781 263.033 17.1765C263.27 17.5749 263.389 18.0639 263.389 18.6435C263.389 19.3116 263.214 19.9152 262.864 20.4545C262.518 20.9938 262.011 21.4225 261.343 21.7404C260.679 22.0584 259.872 22.2173 258.922 22.2173C258.036 22.2173 257.27 22.0745 256.622 21.7887C255.978 21.503 255.471 21.1045 255.1 20.5934C254.734 20.0823 254.527 19.4886 254.479 18.8125H256.024C256.064 19.2794 256.221 19.6657 256.495 19.9716C256.773 20.2734 257.123 20.4988 257.545 20.6477C257.972 20.7926 258.431 20.8651 258.922 20.8651C259.493 20.8651 260.006 20.7725 260.461 20.5874C260.916 20.3982 261.276 20.1366 261.542 19.8026C261.807 19.4645 261.94 19.0701 261.94 18.6193C261.94 18.2088 261.826 17.8748 261.596 17.6172C261.367 17.3596 261.065 17.1503 260.691 16.9893C260.316 16.8284 259.912 16.6875 259.477 16.5668L257.956 16.1321C256.99 15.8544 256.225 15.458 255.662 14.9428C255.098 14.4277 254.817 13.7536 254.817 12.9205C254.817 12.2282 255.004 11.6245 255.378 11.1094C255.756 10.5902 256.264 10.1877 256.899 9.90199C257.539 9.61222 258.254 9.46733 259.043 9.46733C259.839 9.46733 260.548 9.6102 261.168 9.89595C261.787 10.1777 262.278 10.564 262.641 11.055C263.007 11.546 263.2 12.1035 263.22 12.7273H261.771ZM265.633 22V20.9134L269.714 16.446C270.193 15.9228 270.588 15.468 270.898 15.0817C271.207 14.6913 271.437 14.325 271.586 13.983C271.739 13.6368 271.815 13.2746 271.815 12.8963C271.815 12.4616 271.711 12.0853 271.501 11.7674C271.296 11.4495 271.014 11.204 270.656 11.0309C270.298 10.8578 269.895 10.7713 269.449 10.7713C268.974 10.7713 268.559 10.8699 268.205 11.0671C267.855 11.2603 267.583 11.532 267.39 11.8821C267.201 12.2322 267.106 12.6428 267.106 13.1136H265.682C265.682 12.3892 265.849 11.7533 266.183 11.206C266.517 10.6586 266.972 10.232 267.547 9.92614C268.127 9.62026 268.777 9.46733 269.497 9.46733C270.221 9.46733 270.863 9.62026 271.423 9.92614C271.982 10.232 272.421 10.6445 272.739 11.1637C273.057 11.6829 273.216 12.2604 273.216 12.8963C273.216 13.3511 273.133 13.7958 272.968 14.2305C272.807 14.6611 272.526 15.142 272.123 15.6733C271.725 16.2005 271.171 16.8445 270.463 17.6051L267.686 20.5753V20.6719H273.433V22H265.633ZM275.371 19.4645V18.233L280.804 9.63636H281.698V11.544H281.094L276.989 18.0398V18.1364H284.306V19.4645H275.371ZM281.191 22V19.0902V18.5167V9.63636H282.615V22H281.191ZM286.954 22L292.484 11.0611V10.9645H286.109V9.63636H294.03V11.0369L288.524 22H286.954Z" fill="#656565"/>
<circle cx="315" cy="14" r="12" fill="#0F6130"/>
<path d="M308 13C307.448 13 307 13.4477 307 14C307 14.5523 307.448 15 308 15L308 13ZM322.707 14.7071C323.098 14.3166 323.098 13.6834 322.707 13.2929L316.343 6.92893C315.953 6.53841 315.319 6.53841 314.929 6.92893C314.538 7.31946 314.538 7.95262 314.929 8.34315L320.586 14L314.929 19.6569C314.538 20.0474 314.538 20.6805 314.929 21.0711C315.319 21.4616 315.953 21.4616 316.343 21.0711L322.707 14.7071ZM308 15L322 15L322 13L308 13L308 15Z" fill="#F3EDDE"/>
<circle cx="17" cy="17" r="16" stroke="#0F6130" stroke-width="2"/>
<path d="M16 52C16 52.5523 16.4477 53 17 53C17.5523 53 18 52.5523 18 52L16 52ZM17.7071 33.2929C17.3166 32.9024 16.6834 32.9024 16.2929 33.2929L9.92893 39.6569C9.53841 40.0474 9.53841 40.6805 9.92893 41.0711C10.3195 41.4616 10.9526 41.4616 11.3431 41.0711L17 35.4142L22.6569 41.0711C23.0474 41.4616 23.6805 41.4616 24.0711 41.0711C24.4616 40.6805 24.4616 40.0474 24.0711 39.6569L17.7071 33.2929ZM18 52L18 34L16 34L16 52L18 52Z" fill="#0F6130"/>
</svg>
