<svg width="318" height="58" viewBox="0 0 318 58" fill="none" xmlns="http://www.w3.org/2000/svg">
<path d="M1.05398 27V26.1051L4.41477 22.4261C4.80919 21.9953 5.134 21.6207 5.3892 21.3026C5.64441 20.9811 5.83333 20.6795 5.95597 20.3977C6.08191 20.1127 6.14489 19.8144 6.14489 19.5028C6.14489 19.1449 6.05871 18.835 5.88636 18.5732C5.71733 18.3113 5.48532 18.1091 5.19034 17.9666C4.89536 17.8241 4.56392 17.7528 4.19602 17.7528C3.80492 17.7528 3.46354 17.834 3.17188 17.9964C2.88352 18.1555 2.6598 18.3793 2.50071 18.6676C2.34493 18.956 2.26705 19.294 2.26705 19.6818H1.09375C1.09375 19.0852 1.2313 18.5616 1.50639 18.1108C1.78149 17.66 2.15601 17.3087 2.62997 17.0568C3.10724 16.8049 3.64252 16.679 4.2358 16.679C4.83239 16.679 5.36103 16.8049 5.82173 17.0568C6.28243 17.3087 6.6437 17.6484 6.90554 18.076C7.16738 18.5036 7.2983 18.9792 7.2983 19.5028C7.2983 19.8774 7.23035 20.2436 7.09446 20.6016C6.96188 20.9562 6.72988 21.3523 6.39844 21.7898C6.07031 22.224 5.61458 22.7543 5.03125 23.3807L2.74432 25.8267V25.9062H7.47727V27H1.05398ZM12.8516 27.1392C12.1025 27.1392 11.4645 26.9354 10.9375 26.5277C10.4105 26.1167 10.0078 25.5218 9.7294 24.7429C9.45099 23.9607 9.31179 23.0161 9.31179 21.9091C9.31179 20.8087 9.45099 19.8691 9.7294 19.0902C10.0111 18.308 10.4155 17.7114 10.9425 17.3004C11.4728 16.8861 12.1091 16.679 12.8516 16.679C13.594 16.679 14.2287 16.8861 14.7557 17.3004C15.286 17.7114 15.6903 18.308 15.9688 19.0902C16.2505 19.8691 16.3913 20.8087 16.3913 21.9091C16.3913 23.0161 16.2521 23.9607 15.9737 24.7429C15.6953 25.5218 15.2926 26.1167 14.7656 26.5277C14.2386 26.9354 13.6006 27.1392 12.8516 27.1392ZM12.8516 26.0455C13.594 26.0455 14.1707 25.6875 14.5817 24.9716C14.9927 24.2557 15.1982 23.2348 15.1982 21.9091C15.1982 21.0275 15.1037 20.2768 14.9148 19.657C14.7292 19.0372 14.4607 18.5649 14.1094 18.2401C13.7614 17.9152 13.3421 17.7528 12.8516 17.7528C12.1158 17.7528 11.5407 18.1158 11.1264 18.8416C10.7121 19.5642 10.505 20.5866 10.505 21.9091C10.505 22.7907 10.5978 23.5398 10.7834 24.1562C10.969 24.7727 11.2358 25.2417 11.5838 25.5632C11.9351 25.8847 12.3577 26.0455 12.8516 26.0455Z" fill="#656565"/>
<path d="M37.8072 27H35.4165L39.7692 14.6364H42.5341L46.8928 27H44.5021L41.1999 17.1719H41.1033L37.8072 27ZM37.8857 22.1523H44.4055V23.9513H37.8857V22.1523ZM52.1871 27.1811C51.2615 27.1811 50.4666 26.9779 49.8026 26.5714C49.1425 26.1649 48.6334 25.6035 48.2752 24.8871C47.921 24.1667 47.744 23.3376 47.744 22.3999C47.744 21.4581 47.9251 20.627 48.2873 19.9066C48.6495 19.1822 49.1606 18.6187 49.8207 18.2163C50.4847 17.8098 51.2695 17.6065 52.1751 17.6065C52.9277 17.6065 53.5938 17.7454 54.1733 18.0231C54.7569 18.2968 55.2217 18.6851 55.5678 19.1882C55.9139 19.6873 56.1112 20.2708 56.1594 20.9389H54.0707C53.9862 20.4922 53.7849 20.1199 53.467 19.8221C53.1531 19.5202 52.7325 19.3693 52.2053 19.3693C51.7585 19.3693 51.3661 19.4901 51.0281 19.7315C50.69 19.969 50.4264 20.3111 50.2372 20.7578C50.0521 21.2045 49.9595 21.7398 49.9595 22.3636C49.9595 22.9955 50.0521 23.5388 50.2372 23.9936C50.4223 24.4444 50.6819 24.7925 51.016 25.038C51.354 25.2795 51.7505 25.4002 52.2053 25.4002C52.5272 25.4002 52.815 25.3398 53.0685 25.2191C53.3261 25.0943 53.5414 24.9152 53.7145 24.6818C53.8875 24.4484 54.0063 24.1647 54.0707 23.8306H56.1594C56.1071 24.4866 55.9139 25.0682 55.5799 25.5753C55.2459 26.0784 54.7911 26.4728 54.2156 26.7585C53.64 27.0402 52.9639 27.1811 52.1871 27.1811ZM57.9539 27V17.7273H60.1393V27H57.9539ZM59.0526 16.4112C58.7065 16.4112 58.4087 16.2965 58.1592 16.0671C57.9097 15.8337 57.7849 15.554 57.7849 15.228C57.7849 14.898 57.9097 14.6183 58.1592 14.3888C58.4087 14.1554 58.7065 14.0387 59.0526 14.0387C59.4028 14.0387 59.7006 14.1554 59.9461 14.3888C60.1956 14.6183 60.3204 14.898 60.3204 15.228C60.3204 15.554 60.1956 15.8337 59.9461 16.0671C59.7006 16.2965 59.4028 16.4112 59.0526 16.4112ZM65.8276 27.163C65.0991 27.163 64.4471 26.9759 63.8716 26.6016C63.2961 26.2273 62.8413 25.6839 62.5073 24.9716C62.1732 24.2592 62.0062 23.3939 62.0062 22.3757C62.0062 21.3454 62.1752 20.4761 62.5133 19.7678C62.8554 19.0554 63.3162 18.5181 63.8958 18.1559C64.4753 17.7897 65.1213 17.6065 65.8336 17.6065C66.377 17.6065 66.8237 17.6991 67.1738 17.8842C67.524 18.0653 67.8017 18.2847 68.0069 18.5423C68.2122 18.7958 68.3712 19.0353 68.4838 19.2607H68.5744V14.6364H70.7658V27H68.6167V25.5391H68.4838C68.3712 25.7644 68.2082 26.0039 67.9949 26.2575C67.7815 26.507 67.4998 26.7203 67.1497 26.8974C66.7995 27.0745 66.3588 27.163 65.8276 27.163ZM66.4373 25.37C66.9002 25.37 67.2946 25.2453 67.6206 24.9957C67.9466 24.7422 68.1941 24.39 68.3631 23.9393C68.5321 23.4885 68.6167 22.9633 68.6167 22.3636C68.6167 21.764 68.5321 21.2428 68.3631 20.8001C68.1981 20.3574 67.9526 20.0133 67.6266 19.7678C67.3046 19.5223 66.9082 19.3995 66.4373 19.3995C65.9503 19.3995 65.5439 19.5263 65.2179 19.7798C64.8919 20.0334 64.6464 20.3835 64.4814 20.8303C64.3163 21.277 64.2338 21.7881 64.2338 22.3636C64.2338 22.9432 64.3163 23.4603 64.4814 23.9151C64.6504 24.3659 64.8979 24.7221 65.2239 24.9837C65.5539 25.2412 65.9584 25.37 66.4373 25.37Z" fill="#0F6130"/>
<path fill-rule="evenodd" clip-rule="evenodd" d="M206 7H204V31H206V7ZM194 13V31H196V13H194ZM189 19H191V31H189V19ZM159 22.4286V31H161L161 22.4286H159ZM164 25.8571L164 31H166L166 25.8571H164ZM169 31V26.7143H171V31H169ZM174 25V31H176V25H174ZM179 31V25.8571H181V31H179ZM184 25V31H186V25H184ZM199 31V14.7143H201V31H199Z" fill="#0F6130"/>
<path d="M249.439 28.5455V13.0909H250.429V28.5455H249.439ZM252.771 17.7273C252.699 17.1155 252.405 16.6406 251.89 16.3026C251.375 15.9645 250.743 15.7955 249.994 15.7955C249.447 15.7955 248.968 15.884 248.557 16.0611C248.151 16.2382 247.833 16.4817 247.604 16.7915C247.378 17.1014 247.266 17.4536 247.266 17.848C247.266 18.178 247.344 18.4618 247.501 18.6992C247.662 18.9326 247.867 19.1278 248.117 19.2848C248.366 19.4377 248.628 19.5645 248.902 19.6651C249.175 19.7617 249.427 19.8402 249.656 19.9006L250.912 20.2386C251.234 20.3232 251.592 20.4399 251.986 20.5888C252.385 20.7377 252.765 20.9409 253.127 21.1985C253.494 21.4521 253.795 21.7781 254.033 22.1765C254.27 22.5749 254.389 23.0639 254.389 23.6435C254.389 24.3116 254.214 24.9152 253.864 25.4545C253.518 25.9938 253.011 26.4225 252.343 26.7404C251.679 27.0584 250.872 27.2173 249.922 27.2173C249.036 27.2173 248.27 27.0745 247.622 26.7887C246.978 26.503 246.471 26.1045 246.1 25.5934C245.734 25.0823 245.527 24.4886 245.479 23.8125H247.024C247.064 24.2794 247.221 24.6657 247.495 24.9716C247.773 25.2734 248.123 25.4988 248.545 25.6477C248.972 25.7926 249.431 25.8651 249.922 25.8651C250.493 25.8651 251.006 25.7725 251.461 25.5874C251.916 25.3982 252.276 25.1366 252.542 24.8026C252.807 24.4645 252.94 24.0701 252.94 23.6193C252.94 23.2088 252.826 22.8748 252.596 22.6172C252.367 22.3596 252.065 22.1503 251.691 21.9893C251.316 21.8284 250.912 21.6875 250.477 21.5668L248.956 21.1321C247.99 20.8544 247.225 20.458 246.662 19.9428C246.098 19.4277 245.817 18.7536 245.817 17.9205C245.817 17.2282 246.004 16.6245 246.378 16.1094C246.756 15.5902 247.264 15.1877 247.899 14.902C248.539 14.6122 249.254 14.4673 250.043 14.4673C250.839 14.4673 251.548 14.6102 252.168 14.896C252.787 15.1777 253.278 15.564 253.641 16.055C254.007 16.546 254.2 17.1035 254.22 17.7273H252.771ZM256.633 27V25.9134L260.714 21.446C261.193 20.9228 261.588 20.468 261.898 20.0817C262.207 19.6913 262.437 19.325 262.586 18.983C262.739 18.6368 262.815 18.2746 262.815 17.8963C262.815 17.4616 262.711 17.0853 262.501 16.7674C262.296 16.4495 262.014 16.204 261.656 16.0309C261.298 15.8578 260.895 15.7713 260.449 15.7713C259.974 15.7713 259.559 15.8699 259.205 16.0671C258.855 16.2603 258.583 16.532 258.39 16.8821C258.201 17.2322 258.106 17.6428 258.106 18.1136H256.682C256.682 17.3892 256.849 16.7533 257.183 16.206C257.517 15.6586 257.972 15.232 258.547 14.9261C259.127 14.6203 259.777 14.4673 260.497 14.4673C261.221 14.4673 261.863 14.6203 262.423 14.9261C262.982 15.232 263.421 15.6445 263.739 16.1637C264.057 16.6829 264.216 17.2604 264.216 17.8963C264.216 18.3511 264.133 18.7958 263.968 19.2305C263.807 19.6611 263.526 20.142 263.123 20.6733C262.725 21.2005 262.171 21.8445 261.463 22.6051L258.686 25.5753V25.6719H264.433V27H256.633ZM266.371 24.4645V23.233L271.804 14.6364H272.698V16.544H272.094L267.989 23.0398V23.1364H275.306V24.4645H266.371ZM272.191 27V24.0902V23.5167V14.6364H273.615V27H272.191ZM277.954 27L283.484 16.0611V15.9645H277.109V14.6364H285.03V16.0369L279.524 27H277.954Z" fill="#656565"/>
<circle cx="306" cy="19" r="12" fill="#0F6130"/>
<path d="M299 18C298.448 18 298 18.4477 298 19C298 19.5523 298.448 20 299 20L299 18ZM313.707 19.7071C314.098 19.3166 314.098 18.6834 313.707 18.2929L307.343 11.9289C306.953 11.5384 306.319 11.5384 305.929 11.9289C305.538 12.3195 305.538 12.9526 305.929 13.3431L311.586 19L305.929 24.6569C305.538 25.0474 305.538 25.6805 305.929 26.0711C306.319 26.4616 306.953 26.4616 307.343 26.0711L313.707 19.7071ZM299 20L313 20L313 18L299 18L299 20Z" fill="#F3EDDE"/>
<path d="M182 57C182 57.5523 182.448 58 183 58C183.552 58 184 57.5523 184 57L182 57ZM183.707 38.2929C183.317 37.9024 182.683 37.9024 182.293 38.2929L175.929 44.6569C175.538 45.0474 175.538 45.6805 175.929 46.0711C176.319 46.4616 176.953 46.4616 177.343 46.0711L183 40.4142L188.657 46.0711C189.047 46.4616 189.681 46.4616 190.071 46.0711C190.462 45.6805 190.462 45.0474 190.071 44.6569L183.707 38.2929ZM184 57L184 39L182 39L182 57L184 57Z" fill="#0F6130"/>
<rect x="153" y="1" width="59" height="36" rx="9" stroke="#0F6130" stroke-width="2"/>
</svg>
