<svg width="15" height="19" viewBox="0 0 15 19" fill="none" xmlns="http://www.w3.org/2000/svg">
<path d="M9.79381 7.66852C11.2887 7.53675 13.2216 7.11512 14.4588 5.82386C15.1804 5.08599 15.1804 3.92649 14.4588 3.18863C13.7371 2.45076 12.6031 2.45076 11.8814 3.18863C12.6031 2.45076 12.6031 1.29126 11.8814 0.553398C11.1598 -0.184466 10.0258 -0.184466 9.30412 0.553398C8.06701 1.81831 7.62887 3.79473 7.5 5.32316C7.37113 3.79473 6.95876 1.81831 5.69588 0.553398C4.97423 -0.184466 3.84021 -0.184466 3.11856 0.553398C2.39691 1.29126 2.39691 2.45076 3.11856 3.18863C2.39691 2.45076 1.26289 2.45076 0.541237 3.18863C-0.180412 3.92649 -0.180412 5.08599 0.541237 5.82386C1.77835 7.08877 3.71134 7.53675 5.20619 7.66852C3.71134 7.80028 1.77835 8.22191 0.541237 9.51318C-0.180412 10.251 -0.180412 11.4105 0.541237 12.1484C1.26289 12.8863 2.39691 12.8863 3.11856 12.1484C2.39691 12.8863 2.39691 14.0458 3.11856 14.7836C3.84021 15.5215 4.97423 15.5215 5.69588 14.7836C6.46907 13.9931 6.93299 12.939 7.19072 11.8849C7.19072 12.4383 7.21649 12.9653 7.26804 13.5187C7.34536 14.5201 7.55155 15.4951 7.91237 16.4438C8.24742 17.3925 8.53093 18.1567 9.04639 19L10.0773 18.2094C9.53608 17.4716 9.09794 16.9445 8.73711 16.1012C8.37629 15.258 8.11856 14.3356 7.98969 13.4133C7.91237 12.939 7.86082 12.4383 7.83505 11.9639C8.09278 12.9917 8.5567 13.9931 9.30412 14.7573C10.0258 15.4951 11.1598 15.4951 11.8814 14.7573C12.6031 14.0194 12.6031 12.8599 11.8814 12.1221C12.6031 12.8599 13.7371 12.8599 14.4588 12.1221C15.1804 11.3842 15.1804 10.2247 14.4588 9.48682C13.2216 8.22191 11.2887 7.80028 9.79381 7.66852Z" fill="#0F6130"/>
</svg>
