<svg width="21" height="21" viewBox="0 0 21 21" fill="none" xmlns="http://www.w3.org/2000/svg">
<path d="M20.6508 8.26964C20.5713 7.95825 20.3113 7.72735 19.9947 7.6853L18.2843 7.46001C18.2475 7.36018 18.2215 7.29275 18.2179 7.28465L18.1889 7.2145C18.1889 7.2145 18.1623 7.15357 18.1199 7.06094L19.171 5.68472C19.3656 5.42976 19.3868 5.08149 19.2244 4.80494C19.2065 4.77414 18.7738 4.04522 17.81 3.07438C16.846 2.10445 16.1208 1.6694 16.0909 1.65141C15.8159 1.48773 15.4701 1.50886 15.217 1.70514L13.8495 2.763C13.7575 2.72073 13.6973 2.69352 13.6973 2.69352C13.692 2.69097 13.6626 2.67883 13.6091 2.6571C13.6091 2.6571 13.5481 2.63372 13.4528 2.59752L13.2291 0.875961C13.1875 0.557371 12.9579 0.296105 12.6487 0.215839C12.6148 0.20797 11.8634 0 10.5 0C9.13656 0 8.25119 0.207979 8.21701 0.216747C7.90782 0.296789 7.6782 0.558252 7.63665 0.876842L7.41299 2.59864C7.31491 2.63552 7.249 2.66091 7.2423 2.66361C7.1831 2.68834 7.17619 2.69104 7.16882 2.69419C7.16882 2.69419 7.1085 2.72116 7.01624 2.76388L5.64857 1.70583C5.39545 1.51 5.04915 1.48909 4.77458 1.65232C4.7442 1.67031 4.01996 2.10536 3.05508 3.07574C2.09153 4.04613 1.65876 4.77572 1.64111 4.80585C1.47847 5.0824 1.49971 5.43066 1.6943 5.68584L2.74564 7.0616C2.70364 7.15424 2.67659 7.21493 2.67659 7.21493C2.66587 7.24394 2.65247 7.27272 2.64108 7.30262C2.64108 7.30262 2.61718 7.36469 2.58121 7.46092L0.871262 7.68576C0.554697 7.7278 0.295098 7.9587 0.215118 8.2701C0.206853 8.30427 0.000223125 9.19485 0 10.5672C0 11.9396 0.206887 12.6955 0.215599 12.7301C0.295354 13.0411 0.555402 13.272 0.871742 13.3138L2.58212 13.5391C2.61898 13.6382 2.64422 13.7046 2.6469 13.7109C2.67147 13.7704 2.67437 13.7779 2.6775 13.7851C2.6775 13.7851 2.7041 13.846 2.74655 13.9386L1.69521 15.3148C1.5004 15.5696 1.47937 15.9183 1.64201 16.1946C1.65989 16.2252 2.0926 16.9541 3.05614 17.9243C4.02013 18.8951 4.74577 19.3299 4.7757 19.3479C5.05027 19.5116 5.3963 19.4898 5.64942 19.294L7.01693 18.2361C7.10942 18.2786 7.16972 18.3058 7.16972 18.3058C7.17434 18.3079 7.20343 18.3199 7.25704 18.3418C7.25704 18.3418 7.31828 18.3656 7.41389 18.4016L7.63772 20.1234C7.67927 20.4417 7.90921 20.703 8.2184 20.7835C8.25258 20.7923 9.13612 21 10.5 21C11.8637 21 12.6156 20.7923 12.6498 20.7835C12.959 20.7035 13.1887 20.4417 13.2302 20.1234L13.4541 18.4016C13.5526 18.3647 13.6194 18.3389 13.627 18.3357L13.698 18.3058C13.698 18.3058 13.7584 18.2791 13.8506 18.2361L15.2179 19.294C15.4714 19.4902 15.8179 19.5116 16.0923 19.3475C16.1229 19.3295 16.8467 18.8942 17.8114 17.9243C18.7749 16.9541 19.2076 16.2247 19.2255 16.1946C19.3879 15.9183 19.3669 15.5696 19.1723 15.3148L18.121 13.9386C18.163 13.8455 18.19 13.7846 18.19 13.7846C18.1922 13.78 18.2042 13.7508 18.2258 13.6971C18.2258 13.6971 18.2495 13.6353 18.2854 13.5391L19.9958 13.3138C20.3124 13.272 20.572 13.0411 20.652 12.7297C20.6607 12.6955 20.9998 11.8724 21 10.4998C20.9987 9.12762 20.6595 8.30427 20.6508 8.26964ZM19.2224 11.8281L17.608 12.0406C17.3129 12.0792 17.0652 12.2834 16.9694 12.5671C16.8771 12.8403 16.7714 13.1155 16.7714 13.1155C16.7316 13.209 16.6226 13.4537 16.508 13.6882C16.3764 13.9573 16.4079 14.2784 16.5891 14.516L17.5812 15.8149C17.3893 16.066 17.1007 16.4125 16.7046 16.8109C16.3083 17.2095 15.9638 17.5002 15.7143 17.6936L14.4241 16.6953C14.1873 16.5125 13.8691 16.481 13.6013 16.6133C13.3461 16.7401 13.0806 16.8592 13.0806 16.8592C13.0466 16.8736 12.7651 16.9829 12.487 17.0782C12.205 17.1749 12.0026 17.4242 11.964 17.7208L11.7531 19.3454C11.441 19.3864 10.9935 19.4255 10.4334 19.4255C9.87266 19.4255 9.42498 19.3859 9.11311 19.3454L8.90221 17.7208C8.86333 17.4238 8.66071 17.1744 8.37878 17.0782C8.10779 16.9851 7.83409 16.8792 7.83409 16.8792C7.74071 16.8388 7.49812 16.7295 7.26511 16.6137C6.99858 16.4815 6.67888 16.5127 6.44207 16.6953L5.15125 17.6943C4.90193 17.5011 4.55743 17.2104 4.16111 16.8113C3.76524 16.4129 3.47659 16.066 3.28424 15.8153L4.27663 14.516C4.45825 14.2779 4.48995 13.9573 4.3577 13.6877C4.24153 13.4514 4.13184 13.2052 4.10995 13.1555C4.09699 13.1245 3.99024 12.845 3.89686 12.568C3.80124 12.2838 3.55325 12.0792 3.25791 12.0406L1.64314 11.8281C1.60337 11.514 1.56383 11.0636 1.56383 10.5002C1.56383 9.93565 1.60339 9.48511 1.64383 9.17124L3.25834 8.95876C3.55368 8.91964 3.80189 8.71527 3.89729 8.4313C3.99044 8.15475 4.09768 7.8746 4.09969 7.87033C4.10617 7.85301 4.2286 7.57648 4.35818 7.31162C4.49043 7.04272 4.45846 6.72143 4.27705 6.48333L3.28472 5.18447C3.47663 4.93356 3.76524 4.58686 4.16111 4.188C4.55765 3.78937 4.90214 3.49888 5.15168 3.30552L6.44255 4.304C6.67914 4.48679 6.99747 4.51782 7.26511 4.38584C7.50057 4.2687 7.74542 4.15833 7.79457 4.13652C7.82428 4.12415 8.10353 4.016 8.37899 3.92134C8.66093 3.82467 8.86333 3.57554 8.90221 3.27898L9.11289 1.6539C9.42499 1.61365 9.87289 1.57384 10.4332 1.57384C10.9935 1.57384 11.4412 1.61365 11.7531 1.6539L11.964 3.27898C12.0026 3.57554 12.2052 3.82512 12.4872 3.92134C12.7595 4.01488 13.0345 4.12167 13.0345 4.12167C13.129 4.16192 13.3701 4.27142 13.6018 4.38608C13.8685 4.51828 14.1875 4.48657 14.4239 4.30378L15.7145 3.30552C15.9638 3.49843 16.308 3.78891 16.7044 4.18755C17.1002 4.5864 17.3891 4.93333 17.5814 5.18447L16.5893 6.48357C16.4077 6.72122 16.3764 7.04182 16.508 7.31117C16.6338 7.5677 16.7522 7.83548 16.7522 7.83548C16.7683 7.87393 16.8755 8.15476 16.9696 8.43221C17.0659 8.71573 17.3129 8.91987 17.608 8.95876L19.2224 9.17124C19.263 9.48511 19.3021 9.93568 19.3021 10.4998C19.3021 11.0637 19.2628 11.514 19.2224 11.8281ZM10.5 15.8508C7.60051 15.8508 5.25 13.4853 5.25 10.5672C5.25 7.64918 7.60051 5.28362 10.5 5.28362C13.3995 5.28362 15.75 7.64918 15.75 10.5672C15.75 13.4853 13.3995 15.8508 10.5 15.8508ZM10.5 14.0896C12.433 14.0896 14 12.5126 14 10.5672C14 8.62187 12.433 7.04481 10.5 7.04481C8.567 7.04481 7 8.62187 7 10.5672C7 12.5126 8.567 14.0896 10.5 14.0896Z" fill="#F3EDDE"/>
</svg>
