<svg width="21" height="22" viewBox="0 0 21 22" fill="none" xmlns="http://www.w3.org/2000/svg">
<path d="M19.6916 8.76964C19.6158 8.45825 19.3678 8.22735 19.066 8.1853L17.435 7.96001C17.3999 7.86018 17.3752 7.79275 17.3717 7.78465L17.344 7.7145C17.344 7.7145 17.3187 7.65357 17.2782 7.56094L18.2806 6.18472C18.4661 5.92976 18.4863 5.58149 18.3314 5.30494C18.3144 5.27414 17.9018 4.54522 16.9828 3.57438C16.0636 2.60445 15.372 2.1694 15.3435 2.15141C15.0813 1.98773 14.7515 2.00886 14.5102 2.20514L13.2062 3.263C13.1185 3.22073 13.0611 3.19352 13.0611 3.19352C13.056 3.19097 13.028 3.17883 12.977 3.1571C12.977 3.1571 12.9189 3.13372 12.8279 3.09752L12.6146 1.37596C12.575 1.05737 12.356 0.796105 12.0612 0.715839C12.0288 0.70797 11.3124 0.5 10.0123 0.5C8.71219 0.5 7.86794 0.707979 7.83535 0.716747C7.54052 0.796789 7.32157 1.05825 7.28194 1.37684L7.06867 3.09864C6.97515 3.13552 6.9123 3.16091 6.90591 3.16361C6.84946 3.18834 6.84287 3.19104 6.83584 3.19419C6.83584 3.19419 6.77833 3.22116 6.69034 3.26388L5.3862 2.20583C5.14484 2.01 4.81462 1.98909 4.55281 2.15232C4.52384 2.17031 3.83324 2.60536 2.91317 3.57574C1.99439 4.54613 1.58171 5.27572 1.56488 5.30585C1.4098 5.5824 1.43005 5.93066 1.6156 6.18584L2.61811 7.5616C2.57806 7.65424 2.55227 7.71493 2.55227 7.71493C2.54204 7.74394 2.52927 7.77272 2.5184 7.80262C2.5184 7.80262 2.49561 7.86469 2.46132 7.96092L0.830793 8.18576C0.528932 8.2278 0.281391 8.4587 0.205127 8.7701C0.197245 8.80427 0.000212761 9.69485 0 11.0672C0 12.4396 0.197277 13.1955 0.205585 13.2301C0.281636 13.5411 0.529604 13.772 0.831251 13.8138L2.46218 14.0391C2.49733 14.1382 2.5214 14.2046 2.52395 14.2109C2.54739 14.2704 2.55015 14.2779 2.55313 14.2851C2.55313 14.2851 2.5785 14.346 2.61898 14.4386L1.61647 15.8148C1.43071 16.0696 1.41066 16.4183 1.56575 16.6946C1.58279 16.7252 1.9954 17.4541 2.91419 18.4243C3.83341 19.3951 4.52534 19.8299 4.55388 19.8479C4.81569 20.0116 5.14566 19.9898 5.38702 19.794L6.69101 18.7361C6.7792 18.7786 6.8367 18.8058 6.8367 18.8058C6.84111 18.8079 6.86884 18.8199 6.91997 18.8418C6.91997 18.8418 6.97836 18.8656 7.06953 18.9016L7.28296 20.6234C7.32258 20.9417 7.54184 21.203 7.83667 21.2835C7.86926 21.2923 8.71176 21.5 10.0123 21.5C11.3126 21.5 12.0296 21.2923 12.0622 21.2835C12.3571 21.2035 12.5761 20.9417 12.6157 20.6234L12.8292 18.9016C12.9231 18.8647 12.9868 18.8389 12.9941 18.8357L13.0618 18.8058C13.0618 18.8058 13.1193 18.7791 13.2073 18.7361L14.511 19.794C14.7528 19.9902 15.0832 20.0116 15.3448 19.8475C15.374 19.8295 16.0642 19.3942 16.9841 18.4243C17.9028 17.4541 18.3155 16.7247 18.3325 16.6946C18.4874 16.4183 18.4674 16.0696 18.2818 15.8148L17.2793 14.4386C17.3194 14.3455 17.3451 14.2846 17.3451 14.2846C17.3472 14.28 17.3586 14.2508 17.3792 14.1971C17.3792 14.1971 17.4018 14.1353 17.4361 14.0391L19.067 13.8138C19.3689 13.772 19.6164 13.5411 19.6927 13.2297C19.701 13.1955 20.0244 12.3724 20.0246 10.9998C20.0233 9.62762 19.6999 8.80427 19.6916 8.76964ZM18.3295 12.3281L16.7902 12.5406C16.5088 12.5792 16.2726 12.7834 16.1812 13.0671C16.0932 13.3403 15.9924 13.6155 15.9924 13.6155C15.9545 13.709 15.8505 13.9537 15.7412 14.1882C15.6158 14.4573 15.6458 14.7784 15.8186 15.016L16.7646 16.3149C16.5816 16.566 16.3064 16.9125 15.9287 17.3109C15.5508 17.7095 15.2223 18.0002 14.9844 18.1936L13.7541 17.1953C13.5283 17.0125 13.2249 16.981 12.9695 17.1133C12.7262 17.2401 12.473 17.3592 12.473 17.3592C12.4406 17.3736 12.1722 17.4829 11.907 17.5782C11.6381 17.6749 11.4451 17.9242 11.4083 18.2208L11.2072 19.8454C10.9096 19.8864 10.4829 19.9255 9.94879 19.9255C9.41409 19.9255 8.98721 19.8859 8.68982 19.8454L8.48872 18.2208C8.45165 17.9238 8.25844 17.6744 7.9896 17.5782C7.7312 17.4851 7.47021 17.3792 7.47021 17.3792C7.38117 17.3388 7.14984 17.2295 6.92766 17.1137C6.67351 16.9815 6.36866 17.0127 6.14285 17.1953L4.91199 18.1943C4.67425 18.0011 4.34575 17.7104 3.96783 17.3113C3.59035 16.9129 3.31511 16.566 3.13169 16.3153L4.07799 15.016C4.25118 14.7779 4.2814 14.4573 4.15529 14.1877C4.04452 13.9514 3.93993 13.7052 3.91905 13.6555C3.90669 13.6245 3.8049 13.345 3.71586 13.068C3.62468 12.7838 3.38821 12.5792 3.10659 12.5406L1.56681 12.3281C1.5289 12.014 1.49119 11.5636 1.49119 11.0002C1.49119 10.4357 1.52892 9.98511 1.56748 9.67124L3.107 9.45876C3.38862 9.41964 3.6253 9.21527 3.71626 8.9313C3.8051 8.65475 3.90735 8.3746 3.90927 8.37033C3.91545 8.35302 4.03219 8.07648 4.15575 7.81162C4.28186 7.54272 4.25137 7.22143 4.07839 6.98333L3.13215 5.68447C3.31514 5.43356 3.59035 5.08686 3.96783 4.688C4.34596 4.28937 4.67444 3.99888 4.91239 3.80552L6.14331 4.804C6.3689 4.98679 6.67245 5.01782 6.92766 4.88584C7.15219 4.7687 7.38566 4.65833 7.43253 4.63652C7.46086 4.62415 7.72714 4.516 7.9898 4.42134C8.25864 4.32467 8.45165 4.07554 8.48872 3.77898L8.68962 2.1539C8.98722 2.11365 9.41431 2.07384 9.94859 2.07384C10.4829 2.07384 10.9098 2.11365 11.2072 2.1539L11.4083 3.77898C11.4451 4.07554 11.6383 4.32512 11.9072 4.42134C12.1669 4.51488 12.4291 4.62167 12.4291 4.62167C12.5192 4.66192 12.7491 4.77142 12.97 4.88608C13.2243 5.01828 13.5285 4.98657 13.7539 4.80378L14.9846 3.80552C15.2223 3.99843 15.5506 4.28891 15.9285 4.68755C16.306 5.0864 16.5814 5.43333 16.7648 5.68447L15.8188 6.98357C15.6456 7.22122 15.6158 7.54182 15.7412 7.81117C15.8612 8.0677 15.9741 8.33548 15.9741 8.33548C15.9894 8.37393 16.0917 8.65476 16.1814 8.93221C16.2732 9.21573 16.5088 9.41987 16.7902 9.45876L18.3295 9.67124C18.3683 9.98511 18.4056 10.4357 18.4056 10.9998C18.4056 11.5637 18.3681 12.014 18.3295 12.3281ZM10.0123 16.3508C7.24748 16.3508 5.00615 13.9853 5.00615 11.0672C5.00615 8.14918 7.24748 5.78362 10.0123 5.78362C12.7771 5.78362 15.0184 8.14918 15.0184 11.0672C15.0184 13.9853 12.7771 16.3508 10.0123 16.3508ZM10.0123 14.5896C11.8555 14.5896 13.3497 13.0126 13.3497 11.0672C13.3497 9.12187 11.8555 7.54481 10.0123 7.54481C8.16908 7.54481 6.67486 9.12187 6.67486 11.0672C6.67486 13.0126 8.16908 14.5896 10.0123 14.5896Z" fill="#0F6130"/>
</svg>
