<svg width="26" height="26" viewBox="0 0 26 26" fill="none" xmlns="http://www.w3.org/2000/svg">
<circle cx="13" cy="13" r="13" fill="#F3EDDE"/>
<path fill-rule="evenodd" clip-rule="evenodd" d="M7.48426 7H18.7201L22.2044 12.5748L13.1022 21.0268L4 12.5748L7.48426 7ZM8.43439 8.71429L6.20436 12.2823L13.1022 18.6875L20 12.2823L17.77 8.71429H8.43439Z" fill="#0F6130"/>
<path fill-rule="evenodd" clip-rule="evenodd" d="M20.8173 13.2856H5.67445V11.5713H20.8173V13.2856Z" fill="#0F6130"/>
<path fill-rule="evenodd" clip-rule="evenodd" d="M13.1224 7.01848C13.4169 7.02532 13.6873 7.18296 13.8384 7.43591L15.4486 10.1323L16.9223 7.445L18.4254 8.26928L16.2319 12.2693C16.0841 12.5388 15.8034 12.7085 15.4961 12.7141C15.1888 12.7198 14.902 12.5605 14.7444 12.2966L13.0651 9.48459L11.1812 12.3303C11.0204 12.5732 10.7472 12.7179 10.4558 12.7142C10.1645 12.7106 9.89495 12.5592 9.74023 12.3123L7.23331 8.31233L8.68589 7.40196L10.4862 10.2746L12.3877 7.40224C12.5504 7.15657 12.8278 7.01164 13.1224 7.01848Z" fill="#0F6130"/>
<path fill-rule="evenodd" clip-rule="evenodd" d="M12.2988 19.5865L9.72735 12.7294L11.3325 12.1275L13.9039 18.9846L12.2988 19.5865Z" fill="#0F6130"/>
<path fill-rule="evenodd" clip-rule="evenodd" d="M13.9056 19.5865L16.477 12.7294L14.8719 12.1275L12.3005 18.9846L13.9056 19.5865Z" fill="#0F6130"/>
</svg>
